<?xml version="1.0" encoding="utf-8"?>
<?xml-stylesheet type="text/xsl" href="rss1.xsl"?>
<rss version="2.0" xmlns:atom="http://www.w3.org/2005/Atom" xmlns:content="http://purl.org/rss/1.0/modules/content/" xmlns:dc="http://purl.org/dc/elements/1.1/" xmlns:media="http://search.yahoo.com/mrss/">
<channel>
 <title>Getty</title>
 <link>http://www.gettyimg.com/</link>
 <atom:link href="http://www.gettyimg.com/" rel="self" type="application/rss+xml" />

 
                <item>
                <title><![CDATA[【Requests】[REQ AUD] - Christina Aguilera - Dirrty (No Rap Edit)]]></title>
                <link><![CDATA[https://sharemania.us/threads/christina-aguilera-dirrty-no-rap-edit.234214/]]></link>
                <description><![CDATA[<article>
<blockquote class="messageText SelectQuoteContainer ugc baseHtml">
Hello, I'm hoping someone might have a good HQ version (256/320/FLAC) version of the 'no rap edit' of Dirrty? Thank you in advance!
<div class="messageTextEndMarker">&nbsp;</div>
</blockquote>
</article>]]></description>
                <author><![CDATA[papergangsta]]></author>
                </item>

                
                <item>
                <title><![CDATA[【Requests】[REQ AUD] - Doc Brown - Empty Threats]]></title>
                <link><![CDATA[https://sharemania.us/threads/doc-brown-empty-threats.234212/]]></link>
                <description><![CDATA[<article>
<blockquote class="messageText SelectQuoteContainer ugc baseHtml">
Christina Aguilera - Dirrty (US Maxi-Promo)<br>
<a href="https://www.discogs.com/release/790016-Christina-Aguilera-Dirrty" target="_blank" class="externalLink" rel="nofollow">https://www.discogs.com/release/790016-Christina-Aguilera-Dirrty</a><br>
<br>
<br>
<b>File Host:</b> MediaFire.com<br>
<div class="bbCodeBlock bbCodeVfcHH HiddenContent">
<div class="attribution type">Hidden Content:</div>
<blockquote>You must reply before you can see the hidden data contained here.</blockquote>
</div>
<div class="messageTextEndMarker">&nbsp;</div>
</blockquote>
</article>]]></description>
                <author><![CDATA[celinemarg]]></author>
                </item>

                
                <item>
                <title><![CDATA[【Requests】[REQ VID] - Fellow Travelers - Mini Series 2023 - Request]]></title>
                <link><![CDATA[https://sharemania.us/threads/fellow-travelers-mini-series-2023-request.234211/]]></link>
                <description><![CDATA[<article>
<blockquote class="messageText SelectQuoteContainer ugc baseHtml">
Hello everyone, could someone please grab this from apple music please? <br>
<br>
<a href="https://music.apple.com/gb/album/empty-threats/977150019" target="_blank" class="externalLink" rel="nofollow">https://music.apple.com/gb/album/empty-threats/977150019</a>
<div class="messageTextEndMarker">&nbsp;</div>
</blockquote>
</article>]]></description>
                <author><![CDATA[luissneres]]></author>
                </item>

                
                <item>
                <title><![CDATA[【BLU-RAY】BLU-RAY - Queen - Hungarian Rhapsody - Live in Budapest 1986 1080p BDRemux AVC DTS-HD HRA 5.1]]></title>
                <link><![CDATA[https://sharemania.us/threads/queen-hungarian-rhapsody-live-in-budapest-1986-1080p-bdremux-avc-dts-hd-hra-5-1.234213/]]></link>
                <description><![CDATA[<article>
<blockquote class="messageText SelectQuoteContainer ugc baseHtml">
Hi everyone, <br>
<br>
<br>
Has anyone got a link for ''Fellow Travelers'' with Matt Bomer and Jonathan Bailey?
<div class="messageTextEndMarker">&nbsp;</div>
</blockquote>
</article>]]></description>
                <author><![CDATA[szymek04sawicki]]></author>
                </item>

                
                <item>
                <title><![CDATA[【Cinema Center】MOVIE - Barbie Dolphin Magic 2017 576p DVD DD5.1 MPEG2]]></title>
                <link><![CDATA[https://sharemania.us/threads/barbie-dolphin-magic-2017-576p-dvd-dd5-1-mpeg2.234215/]]></link>
                <description><![CDATA[<article>
<blockquote class="messageText SelectQuoteContainer ugc baseHtml">
<img src="https://is5-ssl.mzstatic.com/image/thumb/Video123/v4/e8/6f/73/e86f73d5-0176-1904-1cc9-684acbdbda08/00670211000207-artwork.jpg/100000x100000-999.jpg" class="bbCodeImage LbImage" alt="[​IMG]" data-url="https://is5-ssl.mzstatic.com/image/thumb/Video123/v4/e8/6f/73/e86f73d5-0176-1904-1cc9-684acbdbda08/00670211000207-artwork.jpg/100000x100000-999.jpg" style=""> <br>
<img src="https://i.postimg.cc/5272zvs6/Queen-Hungarian-Rhapsody-Live-in-Budapest-1986-1080p-BDRemux-AVC-DTS-HD-HRA-5-1-mkv.jpg" class="bbCodeImage LbImage" alt="[​IMG]" data-url="https://i.postimg.cc/5272zvs6/Queen-Hungarian-Rhapsody-Live-in-Budapest-1986-1080p-BDRemux-AVC-DTS-HD-HRA-5-1-mkv.jpg" style=""> <br>
<div class="ToggleTriggerAnchor bbCodeSpoilerContainer">
<button type="button" class="button bbCodeSpoilerButton ToggleTrigger Tooltip JsOnly" data-target="> .SpoilerTarget"><span>Spoiler: <span class="SpoilerTitle">Media Info</span></span></button>
<div class="SpoilerTarget bbCodeSpoilerText">General<br>
Unique ID : 236263134909183625562442064976226344042 (0xB1BE9FE798D520C2A090670050C4DC6A)<br>
Complete name : Queen - Hungarian Rhapsody - Live in Budapest 1986 1080p BDRemux AVC DTS-HD HRA 5.1.mkv<br>
Format : Matroska<br>
Format version : Version 1<br>
File size : 24.6 GiB<br>
Duration : 1 h 31 min<br>
Overall bit rate mode : Variable<br>
Overall bit rate : 38.7 Mb/s<br>
Frame rate : 24.000 FPS<br>
Encoded date : 2012-11-11 13:55:58 UTC<br>
Writing application : mkvmerge v2.4.0 ('Fumbling Towards Ecstasy') built on Oct 11 2008 20:13:15<br>
Writing library : libebml v0.7.7 + libmatroska v0.8.1<br>
<br>
Video<br>
ID : 1<br>
Format : AVC<br>
Format/Info : Advanced Video Codec<br>
Format profile : High@L4.1<br>
Format settings : CABAC / 3 Ref Frames<br>
Format settings, CABAC : Yes<br>
Format settings, Reference frames : 3 frames<br>
Muxing mode : Container profile=<br>
Codec ID : V_MPEG4/ISO/AVC<br>
Duration : 1 h 31 min<br>
Bit rate mode : Variable<br>
Bit rate : 33.0 Mb/s<br>
Maximum bit rate : 40.0 Mb/s<br>
Width : 1 920 pixels<br>
Height : 1 080 pixels<br>
Display aspect ratio : 16:9<br>
Frame rate mode : Constant<br>
Frame rate : 24.000 FPS<br>
Color space : YUV<br>
Chroma subsampling : 4:2:0<br>
Bit depth : 8 bits<br>
Scan type : Progressive<br>
Bits/(Pixel*Frame) : 0.663<br>
Stream size : 20.5 GiB (83%)<br>
Title : Queen.Hungarian.Rhapsody.MPEG-4.AVC.1080p.24fps.32.9 Mbps.High@L4.1.mkv.20.5GiB<br>
Writing library : x264 core 125 r2200 999b753<br>
Encoding settings : cabac=1 / ref=4 / deblock=1:-1:-1 / analyse=0x3:0x133 / me=umh / subme=10 / psy=1 / psy_rd=1.00:0.15 / mixed_ref=1 / me_range=24 / chroma_me=1 / trellis=2 / 8x8dct=1 / cqm=0 / deadzone=21,11 / fast_pskip=1 / chroma_qp_offset=-3 / threads=24 / lookahead_threads=4 / sliced_threads=0 / slices=4 / nr=0 / decimate=1 / interlaced=0 / bluray_compat=1 / constrained_intra=0 / bframes=3 / b_pyramid=1 / b_adapt=2 / b_bias=0 / direct=3 / weightb=1 / open_gop=1 / weightp=0 / keyint=23 / keyint_min=1 / scenecut=40 / intra_refresh=0 / rc_lookahead=23 / rc=2pass / mbtree=1 / bitrate=33000 / ratetol=1.0 / qcomp=0.60 / qpmin=0 / qpmax=69 / qpstep=4 / cplxblur=20.0 / qblur=0.5 / vbv_maxrate=40000 / vbv_bufsize=30000 / nal_hrd=vbr / ip_ratio=1.40 / aq=1:1.00<br>
Language : English<br>
Default : Yes<br>
Forced : No<br>
Color range : Limited<br>
Color primaries : BT.709<br>
Transfer characteristics : BT.709<br>
Matrix coefficients : BT.709<br>
<br>
Audio #1<br>
ID : 2<br>
Format : DTS X96<br>
Format/Info : Digital Theater Systems<br>
Commercial name : DTS-HD High Resolution Audio<br>
Codec ID : A_DTS<br>
Duration : 1 h 31 min<br>
Bit rate mode : Constant<br>
Bit rate : 4 224 kb/s<br>
Channel(s) : 6 channels<br>
Channel layout : C L R Ls Rs LFE<br>
Sampling rate : 96.0 kHz<br>
Frame rate : 93.750 FPS (1024 SPF)<br>
Bit depth : 24 bits<br>
Compression mode : Lossy<br>
Stream size : 2.69 GiB (11%)<br>
Title : DTS-HD HRA 5.1 24 bits, 4225 kbps, 96 kHz (core: DTS 5.1, 24 bits, 1509kbps, 48kHz)<br>
Language : English<br>
Default : Yes<br>
Forced : No<br>
<br>
Audio #2<br>
ID : 3<br>
Format : PCM<br>
Format settings : Little / Signed<br>
Codec ID : A_PCM/INT/LIT<br>
Duration : 1 h 31 min<br>
Bit rate mode : Constant<br>
Bit rate : 1 536 kb/s<br>
Channel(s) : 2 channels<br>
Sampling rate : 48.0 kHz<br>
Bit depth : 16 bits<br>
Stream size : 1 002 MiB (4%)<br>
Title : PCM 2.0 16 bits, 1536kbps, 48kHz<br>
Language : English<br>
Default : No<br>
Forced : No<br>
<br>
Menu<br>
00:00:00.000 : en:Intro<br>
00:00:58.750 : en:One Vision<br>
00:06:33.875 : en:Tie Your Mother Down<br>
00:08:31.000 : en:In the Lap of the Gods. . .Revisited<br>
00:11:05.000 : en:Seven Seas of Rhye<br>
00:12:46.083 : en:Tear It Up<br>
00:14:35.000 : en:A Kind of Magic<br>
00:21:03.791 : en:Walk in Budapest<br>
00:23:23.791 : en:Vocal Game with Audience<br>
00:24:31.000 : en:Under Pressure<br>
00:28:07.000 : en:Who Wants to Live Forever<br>
00:32:09.000 : en:I Want to Break Free<br>
00:35:11.000 : en:Guitar Solo<br>
00:38:55.958 : en:Walk in Budapest<br>
00:41:05.416 : en:Now I'm Here<br>
00:46:55.833 : en:Love of My Life<br>
00:49:40.958 : en:Tavaszi Szet Vizet Araszt<br>
00:51:41.125 : en:Is This the World We Created. . .?<br>
00:54:09.000 : en:Tutti Frutti (prelude)<br>
00:55:00.750 : en:Tutti Frutti<br>
00:57:49.875 : en:Walk in Budapest<br>
00:59:24.000 : en:Bohemian Rhapsody<br>
01:04:43.083 : en:Hammer to Fall<br>
01:08:58.708 : en:Crazy Little Thing Called Love<br>
01:12:40.500 : en:Walk in Budapest<br>
01:13:53.958 : en:Radio Ga Ga<br>
01:20:01.000 : en:We Will Rock You<br>
01:23:03.625 : en:Friends Will Be Friends<br>
01:25:04.500 : en:We Are the Champions<br>
01:28:57.750 : en:God Save the Queen (Credits)</div>
</div>
<div class="bbCodeBlock bbCodeVfcHH HiddenContent">
<div class="attribution type">Hidden Content:</div>
<blockquote>You must either reply or click 'Like' to see the hidden information contained here.</blockquote>
</div>
<div class="messageTextEndMarker">&nbsp;</div>
</blockquote>
</article>]]></description>
                <author><![CDATA[Jett123]]></author>
                </item>

                </channel></rss>